<svg xmlns="http://www.w3.org/2000/svg" width="85" height="84" viewBox="0 0 85 84" fill="none">
  <path d="M76.4849 30.485C80.8599 26.11 78.8649 21 76.4849 18.515L65.9849 8.015C61.5749 3.64 56.4999 5.635 54.0149 8.015L48.6514 13.4101C48.276 13.7877 47.7655 14 47.233 14H38.9999C32.5155 14 28.6934 17.3278 26.6899 21.2253C26.5884 21.4227 26.4597 21.6051 26.3028 21.7621L11.5857 36.4792C11.2106 36.8543 10.9999 37.363 10.9999 37.8934V50.2282C10.9999 50.7636 10.7852 51.2766 10.404 51.6525L8.51487 53.515C4.13987 57.925 6.13487 63 8.51487 65.485L19.0149 75.985C20.9049 77.875 22.9349 78.575 24.8599 78.575C27.3449 78.575 29.6199 77.35 30.9849 75.985L39.8486 67.0884C40.2239 66.7117 40.7338 66.5 41.2655 66.5H52.9999C58.373 66.5 61.3486 63.4745 62.6741 60.2072C62.9359 59.562 63.4611 59.0555 64.1106 58.8046C66.9571 57.7054 68.7311 55.5148 69.6698 53.2159C69.935 52.5665 70.4672 52.0574 71.1227 51.8073C75.7411 50.0454 77.4999 45.3556 77.4999 42V32.0945C77.4999 31.7662 77.2308 31.5 76.9024 31.5C76.3715 31.5 76.1032 30.854 76.4849 30.485ZM70.4999 42C70.4999 43.575 69.8349 45.5 66.9999 45.5H65.4999C64.3953 45.5 63.4999 46.3954 63.4999 47.5V49C63.4999 50.575 62.8349 52.5 59.9999 52.5H58.4999C57.3953 52.5 56.4999 53.3954 56.4999 54.5V56C56.4999 57.575 55.8349 59.5 52.9999 59.5H38.3933C37.8629 59.5 37.3542 59.7107 36.9791 60.0858L26.0849 70.98C24.9999 71.995 24.3699 71.4 23.9849 71.015L13.5199 60.585C12.5049 59.5 13.0999 58.87 13.4849 58.485L17.4195 54.5198C17.7913 54.1452 17.9999 53.6388 17.9999 53.1111V40.7634C17.9999 40.233 18.2106 39.7243 18.5857 39.3492L21.5857 36.3492C22.8456 35.0893 24.9999 35.9816 24.9999 37.7634V38.5C24.9999 42.735 27.7999 49 35.4999 49C42.06 49 45.0635 44.4526 45.809 40.4873C46.0131 39.4018 46.8953 38.5 47.9999 38.5H68.4999C69.6044 38.5 70.4999 39.3954 70.4999 40.5V42ZM71.5149 25.515L66.1514 30.9101C65.776 31.2877 65.2655 31.5 64.733 31.5H40.9999C39.8953 31.5 38.9999 32.3954 38.9999 33.5V38.5C38.9999 40.075 38.3349 42 35.4999 42C32.6649 42 31.9999 40.075 31.9999 38.5V28C31.9999 26.39 32.5949 21 38.9999 21H50.1064C50.6369 21 51.1456 20.7893 51.5207 20.4142L58.9149 13.02C59.9999 12.005 60.6299 12.6 61.0149 12.985L71.4799 23.415C72.4949 24.5 71.8999 25.13 71.5149 25.515Z" fill="#4D393A"/>
</svg>