<svg xmlns="http://www.w3.org/2000/svg" width="91" height="76" viewBox="0 0 91 76" fill="none">
  <path d="M14.1277 53.909H19.7363C20.6696 53.909 21.4261 54.6655 21.4261 55.5988C21.4261 56.5321 20.6696 57.2887 19.7363 57.2887H11.3736C10.269 57.2887 9.37357 56.3932 9.37357 55.2887V54.7684C9.37357 54.2197 9.59899 53.6951 9.99703 53.3175L15.4275 48.1654C15.9682 47.6399 16.3679 47.1264 16.6272 46.6246C16.8866 46.1232 17.0159 45.6019 17.0159 45.0604C17.0159 44.2248 16.7531 43.5518 16.2272 43.0423C15.7091 42.5328 15.0165 42.2781 14.1501 42.2781C13.4835 42.2781 12.7542 42.4336 11.9618 42.744C11.9474 42.7494 11.9331 42.7549 11.9187 42.7605C10.7865 43.1996 9.41793 42.4747 9.41793 41.2603C9.41793 40.6176 9.82092 40.0387 10.4371 39.8561C11.0537 39.6734 11.6657 39.5254 12.2731 39.4124C13.2134 39.2289 14.1353 39.1372 15.0387 39.1372C17.0236 39.1372 18.5638 39.6072 19.6598 40.5465C20.7632 41.4861 21.3149 42.7955 21.3149 44.4753C21.3149 45.4466 21.0817 46.3543 20.6153 47.1981C20.1489 48.0337 19.1674 49.1567 17.6714 50.5656L14.1281 53.9092M80.3642 60.6174C81.4822 60.928 82.3302 61.4693 82.9078 62.2417C83.4929 63.006 83.7856 63.981 83.7856 65.1673C83.7856 66.9347 83.1558 68.28 81.897 69.2035C80.6381 70.1192 78.8014 70.5771 76.3871 70.5771C75.5355 70.5771 74.6801 70.5013 73.8211 70.3499C73.3069 70.2628 72.7972 70.1492 72.2936 70.0095C71.6849 69.8407 71.2883 69.2705 71.2883 68.6388C71.2883 67.5118 72.5038 66.7853 73.5854 67.1023C73.6121 67.1101 73.6389 67.1179 73.6656 67.1255C74.4581 67.3403 75.2354 67.4475 75.9983 67.4475C77.1316 67.4475 77.998 67.2368 78.5978 66.8149C79.2051 66.393 79.5088 65.7877 79.5088 64.9996C79.5088 64.1874 79.1979 63.5744 78.5757 63.1605C77.961 62.7386 77.0501 62.5276 75.843 62.5274H75.6132C74.7955 62.5274 74.1326 61.8645 74.1326 61.0468C74.1326 60.2291 74.7955 59.5662 75.6132 59.5662H75.9321C77.0059 59.5662 77.8058 59.3868 78.3315 59.0285C78.8572 58.6625 79.1201 58.1094 79.1201 57.3688C79.1201 56.684 78.8648 56.1547 78.3537 55.7805C77.8427 55.4063 77.1206 55.2192 76.1875 55.2192C75.4989 55.2192 74.8028 55.3028 74.0992 55.4703C73.0893 55.7103 71.9998 55.0185 71.9998 53.9805V53.9217C71.9998 53.2811 72.4176 52.7101 73.0405 52.5603C73.5267 52.4434 74.0169 52.3466 74.5102 52.27C75.3196 52.1443 76.1362 52.0805 76.954 52.079C79.1091 52.079 80.7198 52.4613 81.7864 53.2256C82.86 53.9817 83.3969 55.1243 83.3969 56.6528C83.3969 57.6959 83.1414 58.5516 82.6305 59.2203C82.1193 59.881 81.364 60.3467 80.3644 60.6176M41.7201 23.0269C41.7201 22.1499 42.4311 21.4389 43.3081 21.4389H43.6085C44.6515 21.4389 45.497 20.5934 45.497 19.5504V11.9006C45.497 10.8814 44.5534 10.1243 43.5585 10.345L43.4789 10.3626C42.5248 10.5743 41.62 9.84818 41.62 8.87086C41.62 8.15517 42.1167 7.53536 42.8153 7.37951L45.2597 6.83413C45.4026 6.80223 45.5487 6.78614 45.6952 6.78614H47.5404C48.645 6.78614 49.5404 7.68157 49.5404 8.78614V19.5502C49.5404 20.5932 50.3859 21.4387 51.4288 21.4387H51.7291C52.6062 21.4387 53.3173 22.1497 53.3173 23.0268C53.3173 23.9039 52.6062 24.6149 51.7291 24.6149H43.3081C42.4311 24.6149 41.7201 23.904 41.7201 23.0269ZM89 75.5C90.1046 75.5 91 74.6046 91 73.5V48.1522C91 47.0476 90.1046 46.1522 89 46.1522H65.7C64.5954 46.1522 63.7 45.2567 63.7 44.1522V2.5C63.7 1.39543 62.8046 0.5 61.7 0.5H32.3333C31.2288 0.5 30.3333 1.39543 30.3333 2.5V31.1087C30.3333 32.2133 29.4379 33.1087 28.3333 33.1087H2C0.895432 33.1087 0 34.0041 0 35.1087V73.5C0 74.6046 0.895431 75.5 2 75.5H89Z" fill="#4D393A"/>
</svg>