<svg xmlns="http://www.w3.org/2000/svg" width="85" height="84" viewBox="0 0 85 84" fill="none">
  <path d="M60.375 56.3576C60.375 56.8996 60.0827 57.3993 59.6104 57.665L43.2354 66.8759C42.7788 67.1328 42.2212 67.1328 41.7646 66.8759L25.3896 57.665C24.9173 57.3993 24.625 56.8996 24.625 56.3576V47.7838C24.625 46.8759 24.1328 46.0393 23.3391 45.5984L22.0891 44.904C20.4228 43.9782 18.375 45.1831 18.375 47.0894V59.4279C18.375 60.3311 18.8622 61.1641 19.6493 61.6068L41.2743 73.7709C42.0354 74.199 42.9646 74.199 43.7257 73.7709L65.3507 61.6068C66.1378 61.1641 66.625 60.3311 66.625 59.4279V47.0894C66.625 45.1831 64.5772 43.9782 62.9109 44.904L61.6609 45.5984C60.8672 46.0393 60.375 46.8759 60.375 47.7838V56.3576Z" fill="#4D393A" stroke="#4D393A" stroke-linejoin="round"/>
  <path d="M63.2572 33.4558L63.5 33.8928L63.2572 33.4558L43.2285 44.5834C42.7754 44.8351 42.2246 44.8351 41.7715 44.5834L21.7428 33.4558L21.7428 33.4558L16.4928 30.5392L16.4928 30.5392L16.1104 30.3267C15.0647 29.7458 15.0864 28.2345 16.1484 27.6839L41.8095 14.3781C42.2425 14.1536 42.7575 14.1536 43.1905 14.3781L68.8516 27.6839C69.9136 28.2345 69.9353 29.7458 68.8896 30.3267L68.5072 30.5392L63.2572 33.4558ZM6.53592 32.1573L6.77873 31.7202L6.53592 32.1573L41.2859 51.4623C42.041 51.8818 42.959 51.8818 43.7141 51.4623L71.2716 36.1532C72.2713 35.5977 73.5 36.3207 73.5 37.4644V46.5625C73.5 47.9432 74.6193 49.0625 76 49.0625H77.25C78.6307 49.0625 79.75 47.9432 79.75 46.5625V27.8145C79.75 26.8808 79.2297 26.0249 78.4008 25.5951L43.6508 7.57658C42.9292 7.20243 42.0708 7.20243 41.3492 7.57658L6.59921 25.5951C5.77031 26.0249 5.25 26.8808 5.25 27.8145V29.9719C5.25 30.8798 5.74224 31.7164 6.53592 32.1573Z" fill="#4D393A" stroke="#4D393A" stroke-linejoin="round"/>
</svg>