<svg width="86" height="86" viewBox="0 0 86 86" fill="none" xmlns="http://www.w3.org/2000/svg">
<g id="Group 45">
<circle id="Ellipse 15" cx="43" cy="43" r="43" fill="#F8DCC5"/>
<path id="Vector" d="M46.75 67.7244C58.7775 65.9144 68 55.5369 68 43.0044C68 29.1969 56.8075 18.0044 43 18.0044C29.1925 18.0044 18 29.1969 18 43.0044C18 55.5369 27.2225 65.9169 39.25 67.7244V50.5044H35.5C34.5054 50.5044 33.5516 50.1093 32.8483 49.4061C32.1451 48.7028 31.75 47.749 31.75 46.7544C31.75 45.7598 32.1451 44.806 32.8483 44.1028C33.5516 43.3995 34.5054 43.0044 35.5 43.0044H39.25V38.0044C39.25 35.6838 40.1719 33.4582 41.8128 31.8172C43.4538 30.1763 45.6794 29.2544 48 29.2544H49.25C50.2446 29.2544 51.1984 29.6495 51.9016 30.3527C52.6049 31.056 53 32.0098 53 33.0044C53 33.999 52.6049 34.9528 51.9016 35.6561C51.1984 36.3593 50.2446 36.7544 49.25 36.7544H48C47.6685 36.7544 47.3505 36.8861 47.1161 37.1205C46.8817 37.3549 46.75 37.6729 46.75 38.0044V43.0044H50.5C51.4946 43.0044 52.4484 43.3995 53.1516 44.1028C53.8549 44.806 54.25 45.7598 54.25 46.7544C54.25 47.749 53.8549 48.7028 53.1516 49.4061C52.4484 50.1093 51.4946 50.5044 50.5 50.5044H46.75V67.7244Z" fill="#4D393A"/>
</g>
</svg>
