<svg width="86" height="86" viewBox="0 0 86 86" fill="none" xmlns="http://www.w3.org/2000/svg">
<g id="Group 43">
<g id="Group 44">
<circle id="Ellipse 14" cx="43" cy="43" r="43" fill="#F8DCC5"/>
<path id="Vector" d="M56.35 26.6544C55.7567 26.6544 55.1766 26.8303 54.6833 27.16C54.1899 27.4896 53.8054 27.9582 53.5784 28.5063C53.3513 29.0545 53.2919 29.6577 53.4076 30.2397C53.5234 30.8216 53.8091 31.3562 54.2287 31.7757C54.6482 32.1953 55.1828 32.481 55.7647 32.5968C56.3467 32.7125 56.9499 32.6531 57.4981 32.426C58.0462 32.199 58.5148 31.8145 58.8444 31.3211C59.1741 30.8278 59.35 30.2477 59.35 29.6544C59.35 28.8587 59.0339 28.0957 58.4713 27.5331C57.9087 26.9705 57.1456 26.6544 56.35 26.6544ZM67.85 32.7044C67.8014 30.6301 67.4129 28.5779 66.7 26.6294C66.0643 24.9622 65.075 23.4526 63.8 22.2044C62.5621 20.923 61.0489 19.9398 59.375 19.3294C57.4316 18.5948 55.3771 18.1974 53.3 18.1544C50.65 18.0044 49.8 18.0044 43 18.0044C36.2 18.0044 35.35 18.0044 32.7 18.1544C30.6229 18.1974 28.5684 18.5948 26.625 19.3294C24.9542 19.946 23.4423 20.9283 22.2 22.2044C20.9186 23.4423 19.9354 24.9555 19.325 26.6294C18.5904 28.5728 18.193 30.6273 18.15 32.7044C18 35.3544 18 36.2044 18 43.0044C18 49.8044 18 50.6544 18.15 53.3044C18.193 55.3815 18.5904 57.436 19.325 59.3794C19.9354 61.0533 20.9186 62.5664 22.2 63.8044C23.4423 65.0805 24.9542 66.0628 26.625 66.6794C28.5684 67.414 30.6229 67.8114 32.7 67.8544C35.35 68.0044 36.2 68.0044 43 68.0044C49.8 68.0044 50.65 68.0044 53.3 67.8544C55.3771 67.8114 57.4316 67.414 59.375 66.6794C61.0489 66.069 62.5621 65.0858 63.8 63.8044C65.0806 62.5608 66.0708 61.0499 66.7 59.3794C67.4129 57.4309 67.8014 55.3787 67.85 53.3044C67.85 50.6544 68 49.8044 68 43.0044C68 36.2044 68 35.3544 67.85 32.7044ZM63.35 53.0044C63.3318 54.5913 63.0444 56.1637 62.5 57.6544C62.1008 58.7424 61.4597 59.7255 60.625 60.5294C59.8141 61.3557 58.8331 61.9955 57.75 62.4044C56.2593 62.9488 54.6869 63.2362 53.1 63.2544C50.6 63.3794 49.675 63.4044 43.1 63.4044C36.525 63.4044 35.6 63.4044 33.1 63.2544C31.4522 63.2852 29.8115 63.0315 28.25 62.5044C27.2145 62.0746 26.2784 61.4364 25.5 60.6294C24.6702 59.8263 24.0371 58.8424 23.65 57.7544C23.0396 56.2423 22.7011 54.6343 22.65 53.0044C22.65 50.5044 22.5 49.5794 22.5 43.0044C22.5 36.4294 22.5 35.5044 22.65 33.0044C22.6612 31.382 22.9574 29.7743 23.525 28.2544C23.9651 27.1992 24.6407 26.2585 25.5 25.5044C26.2595 24.6448 27.1982 23.9621 28.25 23.5044C29.7739 22.9545 31.38 22.6671 33 22.6544C35.5 22.6544 36.425 22.5044 43 22.5044C49.575 22.5044 50.5 22.5044 53 22.6544C54.5869 22.6726 56.1593 22.96 57.65 23.5044C58.7861 23.926 59.8057 24.6115 60.625 25.5044C61.4443 26.2723 62.0844 27.2112 62.5 28.2544C63.0556 29.7767 63.3432 31.3838 63.35 33.0044C63.475 35.5044 63.5 36.4294 63.5 43.0044C63.5 49.5794 63.475 50.5044 63.35 53.0044ZM43 30.1794C40.4645 30.1843 37.9874 30.9407 35.8816 32.3529C33.7759 33.7652 32.1359 35.7699 31.1691 38.1138C30.2022 40.4577 29.9518 43.0356 30.4495 45.5217C30.9472 48.0079 32.1706 50.2907 33.9652 52.0818C35.7598 53.8729 38.045 55.0919 40.5321 55.5848C43.0193 56.0776 45.5967 55.8222 47.9387 54.8507C50.2807 53.8793 52.2822 52.2355 53.6903 50.127C55.0984 48.0185 55.85 45.5399 55.85 43.0044C55.8533 41.3172 55.523 39.6459 54.8781 38.0868C54.2332 36.5277 53.2864 35.1114 52.0922 33.9195C50.898 32.7276 49.4799 31.7836 47.9195 31.1417C46.3591 30.4998 44.6872 30.1728 43 30.1794ZM43 51.3294C41.3535 51.3294 39.7439 50.8411 38.3749 49.9264C37.0058 49.0116 35.9388 47.7114 35.3087 46.1902C34.6786 44.669 34.5137 42.9952 34.835 41.3803C35.1562 39.7654 35.9491 38.282 37.1133 37.1177C38.2776 35.9535 39.761 35.1606 41.3759 34.8394C42.9908 34.5181 44.6646 34.683 46.1858 35.3131C47.707 35.9432 49.0072 37.0102 49.922 38.3793C50.8367 39.7483 51.325 41.3579 51.325 43.0044C51.325 44.0976 51.1097 45.1802 50.6913 46.1902C50.2729 47.2003 49.6597 48.118 48.8867 48.8911C48.1136 49.6641 47.1959 50.2773 46.1858 50.6957C45.1758 51.1141 44.0933 51.3294 43 51.3294Z" fill="#4D393A"/>
</g>
</g>
</svg>
