<svg xmlns="http://www.w3.org/2000/svg" width="85" height="84" viewBox="0 0 85 84" fill="none">
  <path d="M14.5 73.5C12.575 73.5 10.9277 72.8152 9.558 71.4455C8.18833 70.0758 7.50233 68.4273 7.5 66.5V28C7.5 26.075 8.186 24.4277 9.558 23.058C10.93 21.6883 12.5773 21.0023 14.5 21H26.5C27.6046 21 28.5 20.1046 28.5 19V14C28.5 12.075 29.186 10.4277 30.558 9.058C31.93 7.68833 33.5773 7.00233 35.5 7H49.5C51.425 7 53.0735 7.686 54.4455 9.058C55.8175 10.43 56.5023 12.0773 56.5 14V19C56.5 20.1046 57.3954 21 58.5 21H70.5C72.425 21 74.0735 21.686 75.4455 23.058C76.8175 24.43 77.5023 26.0773 77.5 28V66.5C77.5 68.425 76.8152 70.0735 75.4455 71.4455C74.0758 72.8175 72.4273 73.5023 70.5 73.5H14.5ZM35.5 19C35.5 20.1046 36.3954 21 37.5 21H47.5C48.6046 21 49.5 20.1046 49.5 19V16C49.5 14.8954 48.6046 14 47.5 14H37.5C36.3954 14 35.5 14.8954 35.5 16V19ZM70.5 54.5C70.5 53.3954 69.6046 52.5 68.5 52.5H55C53.8954 52.5 53 53.3954 53 54.5V57.5C53 58.6046 52.1046 59.5 51 59.5H34C32.8954 59.5 32 58.6046 32 57.5V54.5C32 53.3954 31.1046 52.5 30 52.5H16.5C15.3954 52.5 14.5 53.3954 14.5 54.5V64.5C14.5 65.6046 15.3954 66.5 16.5 66.5H68.5C69.6046 66.5 70.5 65.6046 70.5 64.5V54.5ZM39 50.5C39 51.6046 39.8954 52.5 41 52.5H44C45.1046 52.5 46 51.6046 46 50.5V47.5C46 46.3954 45.1046 45.5 44 45.5H41C39.8954 45.5 39 46.3954 39 47.5V50.5ZM14.5 43.5C14.5 44.6046 15.3954 45.5 16.5 45.5H30C31.1046 45.5 32 44.6046 32 43.5V40.5C32 39.3954 32.8954 38.5 34 38.5H51C52.1046 38.5 53 39.3954 53 40.5V43.5C53 44.6046 53.8954 45.5 55 45.5H68.5C69.6046 45.5 70.5 44.6046 70.5 43.5V30C70.5 28.8954 69.6046 28 68.5 28H16.5C15.3954 28 14.5 28.8954 14.5 30V43.5Z" fill="#4D393A"/>
</svg>