<svg width="86" height="86" viewBox="0 0 86 86" fill="none" xmlns="http://www.w3.org/2000/svg">
<g id="Group 46">
<circle id="Ellipse 16" cx="43" cy="43" r="43" fill="#F8DCC5"/>
<path id="Vector" d="M43 18.0044C56.8075 18.0044 68 29.1969 68 43.0044C68 56.8119 56.8075 68.0044 43 68.0044C38.7449 68.0106 34.5592 66.9261 30.8425 64.8544L30.08 64.4094L22.5 66.6394C22.0875 66.7609 21.6508 66.7751 21.2313 66.6806C20.8118 66.5861 20.4234 66.386 20.1029 66.0993C19.7824 65.8126 19.5404 65.4487 19.3999 65.0423C19.2594 64.6359 19.225 64.2003 19.3 63.7769L19.365 63.5044L21.595 55.9244C19.2374 52.0276 17.994 47.5588 18 43.0044C18 29.1969 29.1925 18.0044 43 18.0044ZM43 23.0044C39.4191 23.0037 35.9037 23.9645 32.8208 25.7864C29.738 27.6083 27.2009 30.2245 25.4744 33.3617C23.7479 36.499 22.8954 40.0422 23.0059 43.6215C23.1164 47.2007 24.1858 50.6846 26.1025 53.7094C26.5975 54.4894 26.81 55.4494 26.6425 56.4019L26.545 56.8094L25.4425 60.5619L29.195 59.4594C30.2775 59.1394 31.4025 59.3344 32.295 59.9019C34.9158 61.5613 37.8867 62.5884 40.9729 62.902C44.059 63.2155 47.1758 62.8068 50.0768 61.7083C52.9778 60.6098 55.5835 58.8516 57.6879 56.5726C59.7924 54.2936 61.3379 51.5563 62.2022 48.5771C63.0665 45.598 63.226 42.4586 62.6681 39.4071C62.1102 36.3557 60.8501 33.4759 58.9875 30.9953C57.1249 28.5148 54.7108 26.5015 51.936 25.1146C49.1613 23.7277 46.102 23.0053 43 23.0044ZM35.755 30.9644C36.0318 30.8445 36.335 30.7988 36.6348 30.8317C36.9347 30.8645 37.2208 30.9749 37.465 31.1519C38.725 32.0719 39.725 33.3069 40.585 34.5119L41.4025 35.6969L41.785 36.2594C42.0057 36.5821 42.114 36.9685 42.0932 37.3589C42.0725 37.7493 41.9237 38.1219 41.67 38.4194L41.4825 38.6094L39.1725 40.3244C39.0613 40.4049 38.9831 40.523 38.9523 40.6567C38.9215 40.7905 38.9402 40.9309 39.005 41.0519C39.53 42.0019 40.4575 43.4194 41.5225 44.4844C42.59 45.5494 44.0725 46.5394 45.0875 47.1219C45.3075 47.2469 45.5725 47.2069 45.7525 47.0444L45.8475 46.9319L47.35 44.6444C47.6258 44.2769 48.0332 44.0306 48.4867 43.9569C48.9402 43.8833 49.4046 43.9881 49.7825 44.2494L51.14 45.1969C52.49 46.1594 53.7875 47.1944 54.815 48.5069C55.0061 48.7531 55.1275 49.046 55.1667 49.3552C55.2058 49.6644 55.1612 49.9784 55.0375 50.2644C54.0475 52.5744 51.54 54.5419 48.935 54.4469L48.5375 54.4219L48.06 54.3769C47.9699 54.3662 47.8799 54.3545 47.79 54.3419L47.195 54.2419C44.885 53.8069 41.1825 52.4969 37.345 48.6619C33.51 44.8244 32.2 41.1219 31.765 38.8119L31.665 38.2169L31.6025 37.6969L31.57 37.2594C31.5661 37.1969 31.5627 37.1344 31.56 37.0719C31.465 34.4619 33.4425 31.9544 35.755 30.9644Z" fill="#4D393A"/>
</g>
</svg>
